<svg width="309" height="44" viewBox="0 0 309 44" fill="none" xmlns="http://www.w3.org/2000/svg">
<path d="M4.30009 20.9254C4.30009 10.8324 12.4821 2.65039 22.5751 2.65039C32.6681 2.65039 40.8501 10.8324 40.8501 20.9254C40.8501 31.0184 32.6681 39.2004 22.5751 39.2004C12.4821 39.2004 4.30009 31.0184 4.30009 20.9254Z" fill="white"/>
<path d="M21.5002 0.5C15.7978 0.5 10.3291 2.76513 6.29742 6.79735C2.26538 10.8297 0 16.2982 0 22C0 27.7018 2.26516 33.1714 6.29742 37.2026C10.3295 41.235 15.798 43.5 21.5002 43.5C27.202 43.5 32.6711 41.235 36.7028 37.2026C40.7356 33.1703 43 27.7018 43 22C42.9935 16.2993 40.727 10.8351 36.6963 6.80423C32.6657 2.77374 27.2009 0.506557 21.5002 0.5ZM31.9206 12.4422L25.7786 25.9549C25.7129 26.099 25.5986 26.214 25.4552 26.2785L11.9411 32.421C11.6939 32.5339 11.4027 32.4812 11.2106 32.2888C11.0187 32.0975 10.966 31.8061 11.0784 31.5589L17.221 18.0461C17.2862 17.9021 17.4006 17.7871 17.5442 17.7226L31.058 11.5789C31.3049 11.4671 31.5971 11.5198 31.789 11.7122C31.981 11.9036 32.0327 12.1949 31.9206 12.4422Z" fill="#1DD7C0"/>
<path d="M298.61 32.4369C298.044 32.4369 297.493 32.3423 296.958 32.1533C296.422 31.9788 295.96 31.717 295.573 31.368L296.489 29.7975C296.786 30.0738 297.114 30.2847 297.471 30.4301C297.828 30.5755 298.208 30.6482 298.61 30.6482C299.131 30.6482 299.563 30.5174 299.905 30.2556C300.247 29.9938 300.567 29.5285 300.865 28.8596L301.602 27.2673L301.825 27.0055L306.47 16.5137H308.568L302.83 29.2304C302.488 30.0447 302.101 30.6846 301.669 31.1499C301.252 31.6153 300.791 31.9424 300.285 32.1315C299.778 32.3351 299.22 32.4369 298.61 32.4369ZM301.423 28.4452L296.02 16.5137H298.253L302.852 26.8092L301.423 28.4452Z" fill="white"/>
<path d="M287.766 28.2055C286.62 28.2055 285.593 27.9583 284.685 27.4638C283.791 26.9694 283.084 26.2787 282.563 25.3916C282.042 24.5046 281.782 23.4721 281.782 22.2943C281.782 21.1164 282.042 20.0912 282.563 19.2187C283.084 18.3316 283.791 17.6409 284.685 17.1465C285.593 16.6521 286.62 16.4049 287.766 16.4049C288.763 16.4049 289.664 16.623 290.468 17.0592C291.271 17.4955 291.912 18.1499 292.388 19.0224C292.879 19.8949 293.125 20.9855 293.125 22.2943C293.125 23.603 292.887 24.6936 292.41 25.5661C291.949 26.4386 291.316 27.1003 290.512 27.5511C289.708 27.9873 288.793 28.2055 287.766 28.2055ZM287.944 26.3732C288.689 26.3732 289.359 26.206 289.954 25.8715C290.564 25.5371 291.041 25.0645 291.383 24.4537C291.74 23.8284 291.919 23.1086 291.919 22.2943C291.919 21.4654 291.74 20.7528 291.383 20.1566C291.041 19.5459 290.564 19.0733 289.954 18.7388C289.359 18.4043 288.689 18.2371 287.944 18.2371C287.185 18.2371 286.508 18.4043 285.913 18.7388C285.317 19.0733 284.841 19.5459 284.484 20.1566C284.126 20.7528 283.948 21.4654 283.948 22.2943C283.948 23.1086 284.126 23.8284 284.484 24.4537C284.841 25.0645 285.317 25.5371 285.913 25.8715C286.508 26.206 287.185 26.3732 287.944 26.3732ZM291.986 28.0746V24.9554L292.12 22.2724L291.897 19.5895V11.8896H294.04V28.0746H291.986Z" fill="white"/>
<path d="M272.546 28.2055C271.399 28.2055 270.372 27.9583 269.464 27.4638C268.571 26.9694 267.864 26.2787 267.343 25.3916C266.822 24.5046 266.562 23.4721 266.562 22.2943C266.562 21.1164 266.822 20.0912 267.343 19.2187C267.864 18.3316 268.571 17.6409 269.464 17.1465C270.372 16.6521 271.399 16.4049 272.546 16.4049C273.543 16.4049 274.444 16.623 275.247 17.0592C276.051 17.4955 276.691 18.1499 277.168 19.0224C277.659 19.8949 277.905 20.9855 277.905 22.2943C277.905 23.603 277.666 24.6936 277.19 25.5661C276.729 26.4386 276.096 27.1003 275.292 27.5511C274.488 27.9873 273.573 28.2055 272.546 28.2055ZM272.724 26.3732C273.469 26.3732 274.138 26.206 274.734 25.8715C275.344 25.5371 275.821 25.0645 276.163 24.4537C276.52 23.8284 276.699 23.1086 276.699 22.2943C276.699 21.4654 276.52 20.7528 276.163 20.1566C275.821 19.5459 275.344 19.0733 274.734 18.7388C274.138 18.4043 273.469 18.2371 272.724 18.2371C271.965 18.2371 271.288 18.4043 270.692 18.7388C270.097 19.0733 269.621 19.5459 269.263 20.1566C268.906 20.7528 268.727 21.4654 268.727 22.2943C268.727 23.1086 268.906 23.8284 269.263 24.4537C269.621 25.0645 270.097 25.5371 270.692 25.8715C271.288 26.206 271.965 26.3732 272.724 26.3732ZM276.766 28.0746V24.9554L276.9 22.2724L276.676 19.5895V11.8896H278.82V28.0746H276.766Z" fill="white"/>
<path d="M257.524 28.2052C256.512 28.2052 255.619 28.0234 254.845 27.6599C254.086 27.2964 253.49 26.7438 253.059 26.0021C252.642 25.246 252.434 24.3008 252.434 23.1665V16.5137H254.577V22.9266C254.577 24.0608 254.852 24.9115 255.403 25.4786C255.969 26.0458 256.758 26.3293 257.77 26.3293C258.514 26.3293 259.162 26.1839 259.713 25.8931C260.263 25.5877 260.688 25.1515 260.985 24.5843C261.283 24.0027 261.432 23.3047 261.432 22.4903V16.5137H263.576V28.0743H261.544V24.9551L261.879 25.784C261.492 26.5547 260.911 27.1509 260.137 27.5727C259.363 27.9944 258.492 28.2052 257.524 28.2052Z" fill="white"/>
<path d="M235.959 28.0745V12.8057H242.97C244.771 12.8057 246.156 13.1619 247.123 13.8745C248.091 14.5725 248.574 15.5322 248.574 16.7537C248.574 17.5826 248.381 18.2806 247.994 18.8478C247.622 19.4149 247.116 19.8511 246.476 20.1565C245.835 20.4619 245.143 20.6146 244.399 20.6146L244.801 19.9602C245.694 19.9602 246.483 20.1129 247.168 20.4183C247.853 20.7236 248.396 21.1744 248.798 21.7706C249.2 22.3523 249.401 23.0794 249.401 23.9519C249.401 25.2607 248.895 26.2786 247.882 27.0057C246.885 27.7182 245.396 28.0745 243.417 28.0745H235.959ZM238.192 26.3077H243.327C244.563 26.3077 245.508 26.1041 246.163 25.6969C246.818 25.2897 247.145 24.6499 247.145 23.7774C247.145 22.8904 246.818 22.2432 246.163 21.8361C245.508 21.4289 244.563 21.2253 243.327 21.2253H237.991V19.4585H242.769C243.9 19.4585 244.779 19.2549 245.404 18.8478C246.029 18.4406 246.342 17.8298 246.342 17.0155C246.342 16.2012 246.029 15.5904 245.404 15.1832C244.779 14.7761 243.9 14.5725 242.769 14.5725H238.192V26.3077Z" fill="white"/>
<path d="M227.243 28.2059C225.978 28.2059 224.862 27.9514 223.894 27.4424C222.941 26.9335 222.197 26.2355 221.661 25.3484C221.14 24.4614 220.88 23.4435 220.88 22.2947C220.88 21.1459 221.133 20.128 221.639 19.2409C222.16 18.3539 222.867 17.6631 223.76 17.1687C224.668 16.6598 225.688 16.4053 226.819 16.4053C227.965 16.4053 228.978 16.6525 229.856 17.1469C230.734 17.6413 231.419 18.3393 231.91 19.2409C232.416 20.128 232.669 21.1677 232.669 22.3601C232.669 22.4474 232.662 22.5492 232.647 22.6655C232.647 22.7818 232.64 22.8909 232.625 22.9927H222.554V21.4876H231.508L230.637 22.0111C230.652 21.2695 230.496 20.6078 230.169 20.0262C229.841 19.4445 229.387 18.9937 228.806 18.6738C228.241 18.3393 227.578 18.1721 226.819 18.1721C226.075 18.1721 225.413 18.3393 224.832 18.6738C224.251 18.9937 223.797 19.4518 223.47 20.048C223.142 20.6296 222.979 21.2986 222.979 22.0547V22.4037C222.979 23.1744 223.157 23.8652 223.515 24.4759C223.887 25.0721 224.4 25.5375 225.055 25.8719C225.71 26.2064 226.462 26.3736 227.31 26.3736C228.01 26.3736 228.643 26.2573 229.208 26.0246C229.789 25.792 230.295 25.443 230.727 24.9776L231.91 26.33C231.374 26.9408 230.704 27.4061 229.901 27.726C229.112 28.0459 228.226 28.2059 227.243 28.2059Z" fill="white"/>
<path d="M214.55 28.2059C213.345 28.2059 212.265 27.9514 211.313 27.4424C210.375 26.9335 209.638 26.2355 209.102 25.3484C208.566 24.4614 208.298 23.4435 208.298 22.2947C208.298 21.1459 208.566 20.128 209.102 19.2409C209.638 18.3539 210.375 17.6631 211.313 17.1687C212.265 16.6598 213.345 16.4053 214.55 16.4053C215.622 16.4053 216.575 16.6161 217.408 17.0378C218.257 17.445 218.912 18.0558 219.373 18.8701L217.743 19.8953C217.356 19.3282 216.88 18.9137 216.314 18.652C215.763 18.3757 215.168 18.2375 214.528 18.2375C213.754 18.2375 213.062 18.4048 212.451 18.7392C211.841 19.0737 211.357 19.5463 211 20.157C210.643 20.7532 210.464 21.4658 210.464 22.2947C210.464 23.1236 210.643 23.8434 211 24.4541C211.357 25.0649 211.841 25.5375 212.451 25.8719C213.062 26.2064 213.754 26.3736 214.528 26.3736C215.168 26.3736 215.763 26.2428 216.314 25.981C216.88 25.7047 217.356 25.283 217.743 24.7159L219.373 25.7192C218.912 26.519 218.257 27.1371 217.408 27.5733C216.575 27.995 215.622 28.2059 214.55 28.2059Z" fill="white"/>
<path d="M200.513 16.4053C201.48 16.4053 202.329 16.587 203.058 16.9506C203.802 17.3141 204.383 17.8667 204.8 18.6083C205.217 19.35 205.425 20.2879 205.425 21.4222V28.075H203.281V21.6621C203.281 20.5424 202.999 19.699 202.433 19.1318C201.882 18.5647 201.101 18.2812 200.088 18.2812C199.329 18.2812 198.667 18.4266 198.101 18.7174C197.536 19.0082 197.096 19.4372 196.784 20.0044C196.486 20.5715 196.337 21.2768 196.337 22.1202V28.075H194.194V16.5143H196.248V19.6335L195.913 18.8047C196.3 18.0485 196.895 17.4595 197.699 17.0378C198.503 16.6161 199.441 16.4053 200.513 16.4053Z" fill="white"/>
<path d="M188.196 28.075V25.632L188.084 25.1739V21.0077C188.084 20.1207 187.816 19.4372 187.28 18.9573C186.759 18.4629 185.97 18.2157 184.913 18.2157C184.214 18.2157 183.529 18.3321 182.859 18.5647C182.189 18.7828 181.624 19.081 181.162 19.459L180.269 17.8885C180.879 17.4087 181.609 17.0451 182.457 16.7979C183.32 16.5361 184.221 16.4053 185.159 16.4053C186.781 16.4053 188.032 16.7906 188.91 17.5613C189.788 18.3321 190.227 19.5099 190.227 21.095V28.075H188.196ZM184.31 28.2059C183.432 28.2059 182.658 28.0605 181.988 27.7696C181.333 27.4788 180.827 27.0789 180.47 26.5699C180.113 26.0464 179.934 25.4575 179.934 24.8031C179.934 24.1778 180.083 23.6107 180.381 23.1017C180.693 22.5928 181.192 22.1856 181.877 21.8802C182.576 21.5749 183.514 21.4222 184.69 21.4222H188.441V22.9272H184.779C183.708 22.9272 182.986 23.1017 182.613 23.4507C182.241 23.7997 182.055 24.2215 182.055 24.7159C182.055 25.283 182.286 25.7411 182.747 26.0901C183.209 26.4245 183.849 26.5918 184.668 26.5918C185.471 26.5918 186.171 26.4173 186.767 26.0682C187.377 25.7192 187.816 25.2103 188.084 24.5414L188.508 25.981C188.225 26.6645 187.727 27.2098 187.012 27.6169C186.298 28.0096 185.397 28.2059 184.31 28.2059Z" fill="white"/>
<path d="M170.519 28.2055C169.373 28.2055 168.346 27.9583 167.438 27.4638C166.544 26.9694 165.837 26.2787 165.316 25.3916C164.795 24.5046 164.535 23.4721 164.535 22.2943C164.535 21.1164 164.795 20.0912 165.316 19.2187C165.837 18.3316 166.544 17.6409 167.438 17.1465C168.346 16.6521 169.373 16.4049 170.519 16.4049C171.516 16.4049 172.417 16.623 173.221 17.0592C174.025 17.4955 174.665 18.1499 175.141 19.0224C175.632 19.8949 175.878 20.9855 175.878 22.2943C175.878 23.603 175.64 24.6936 175.163 25.5661C174.702 26.4386 174.069 27.1003 173.265 27.5511C172.462 27.9873 171.546 28.2055 170.519 28.2055ZM170.698 26.3732C171.442 26.3732 172.112 26.206 172.707 25.8715C173.317 25.5371 173.794 25.0645 174.136 24.4537C174.493 23.8284 174.672 23.1086 174.672 22.2943C174.672 21.4654 174.493 20.7528 174.136 20.1566C173.794 19.5459 173.317 19.0733 172.707 18.7388C172.112 18.4043 171.442 18.2371 170.698 18.2371C169.938 18.2371 169.261 18.4043 168.666 18.7388C168.07 19.0733 167.594 19.5459 167.237 20.1566C166.879 20.7528 166.701 21.4654 166.701 22.2943C166.701 23.1086 166.879 23.8284 167.237 24.4537C167.594 25.0645 168.07 25.5371 168.666 25.8715C169.261 26.206 169.938 26.3732 170.698 26.3732ZM174.739 28.0746V24.9554L174.873 22.2724L174.65 19.5895V11.8896H176.793V28.0746H174.739Z" fill="white"/>
<path d="M159.393 28.0746V16.514H161.536V28.0746H159.393ZM160.464 14.2891C160.047 14.2891 159.698 14.1582 159.415 13.8964C159.147 13.6347 159.013 13.3148 159.013 12.9367C159.013 12.5441 159.147 12.2169 159.415 11.9551C159.698 11.6934 160.047 11.5625 160.464 11.5625C160.881 11.5625 161.223 11.6934 161.491 11.9551C161.774 12.2023 161.916 12.515 161.916 12.8931C161.916 13.2857 161.782 13.6202 161.514 13.8964C161.246 14.1582 160.896 14.2891 160.464 14.2891Z" fill="white"/>
<path d="M149.261 28.2052C148.249 28.2052 147.355 28.0234 146.581 27.6599C145.822 27.2964 145.227 26.7438 144.795 26.0021C144.378 25.246 144.17 24.3008 144.17 23.1665V16.5137H146.313V22.9266C146.313 24.0608 146.589 24.9115 147.14 25.4786C147.705 26.0458 148.494 26.3293 149.506 26.3293C150.251 26.3293 150.898 26.1839 151.449 25.8931C152 25.5877 152.424 25.1515 152.722 24.5843C153.019 24.0027 153.168 23.3047 153.168 22.4903V16.5137H155.312V28.0743H153.28V24.9551L153.615 25.784C153.228 26.5547 152.647 27.1509 151.873 27.5727C151.099 27.9944 150.228 28.2052 149.261 28.2052Z" fill="white"/>
<path d="M134.402 28.2487C133.196 28.2487 132.087 28.0596 131.075 27.6815C130.063 27.2889 129.184 26.7436 128.44 26.0456C127.696 25.3331 127.115 24.5042 126.698 23.559C126.282 22.6138 126.073 21.574 126.073 20.4398C126.073 19.3055 126.282 18.2658 126.698 17.3206C127.115 16.3754 127.696 15.5537 128.44 14.8557C129.199 14.1432 130.085 13.5979 131.097 13.2198C132.109 12.8272 133.226 12.6309 134.446 12.6309C135.682 12.6309 136.813 12.8272 137.84 13.2198C138.867 13.6124 139.738 14.2014 140.453 14.9866L139.068 16.339C138.428 15.7282 137.729 15.2847 136.97 15.0084C136.225 14.7176 135.414 14.5722 134.536 14.5722C133.643 14.5722 132.809 14.7176 132.035 15.0084C131.276 15.2993 130.613 15.7064 130.048 16.2299C129.497 16.7534 129.065 17.3787 128.753 18.1058C128.455 18.8184 128.306 19.5963 128.306 20.4398C128.306 21.2686 128.455 22.0466 128.753 22.7737C129.065 23.4863 129.497 24.1116 130.048 24.6496C130.613 25.1731 131.276 25.5803 132.035 25.8711C132.794 26.1619 133.62 26.3074 134.513 26.3074C135.347 26.3074 136.143 26.1837 136.903 25.9365C137.677 25.6748 138.391 25.2458 139.046 24.6496L140.319 26.3074C139.545 26.9472 138.637 27.4343 137.595 27.7688C136.568 28.0887 135.503 28.2487 134.402 28.2487ZM138.175 26.0238V20.3525H140.319V26.3074L138.175 26.0238Z" fill="white"/>
<path d="M116.464 28.0744V16.252H120.506V19.6984L119.903 18.7168C120.26 17.8298 120.841 17.1681 121.644 16.7319C122.448 16.2811 123.423 16.0557 124.569 16.0557V19.7856C124.376 19.7565 124.205 19.742 124.056 19.742C123.922 19.7274 123.773 19.7202 123.609 19.7202C122.746 19.7202 122.046 19.9528 121.51 20.4182C120.974 20.869 120.707 21.6106 120.707 22.6431V28.0744H116.464Z" fill="white"/>
<path d="M108.479 28.2707C107.05 28.2707 105.8 28.009 104.728 27.4855C103.671 26.9474 102.845 26.2203 102.249 25.3042C101.669 24.3735 101.379 23.3193 101.379 22.1414C101.379 20.9635 101.661 19.9165 102.227 19.0004C102.808 18.0697 103.604 17.3499 104.616 16.8409C105.629 16.3174 106.767 16.0557 108.033 16.0557C109.223 16.0557 110.31 16.2956 111.293 16.7755C112.275 17.2408 113.057 17.9315 113.637 18.8477C114.218 19.7638 114.508 20.8762 114.508 22.185C114.508 22.3304 114.5 22.4976 114.486 22.6867C114.471 22.8757 114.456 23.0502 114.441 23.2102H104.862V21.0289H112.186L110.578 21.6397C110.593 21.1016 110.489 20.6363 110.265 20.2437C110.057 19.8511 109.759 19.5457 109.372 19.3276C109 19.1094 108.561 19.0004 108.055 19.0004C107.549 19.0004 107.102 19.1094 106.715 19.3276C106.343 19.5457 106.053 19.8583 105.844 20.2655C105.636 20.6581 105.532 21.1235 105.532 21.6615V22.2941C105.532 22.8757 105.651 23.3774 105.889 23.7991C106.142 24.2208 106.499 24.548 106.961 24.7807C107.422 24.9988 107.973 25.1079 108.613 25.1079C109.209 25.1079 109.715 25.0279 110.131 24.868C110.563 24.6934 110.987 24.4317 111.404 24.0827L113.637 26.3512C113.057 26.9765 112.342 27.4564 111.494 27.7908C110.645 28.1108 109.64 28.2707 108.479 28.2707Z" fill="white"/>
<path d="M94.1532 28.2707C92.7241 28.2707 91.4737 28.009 90.402 27.4855C89.3451 26.9474 88.5189 26.2203 87.9235 25.3042C87.3429 24.3735 87.0527 23.3193 87.0527 22.1414C87.0527 20.9635 87.3355 19.9165 87.9011 19.0004C88.4817 18.0697 89.2781 17.3499 90.2903 16.8409C91.3025 16.3174 92.4413 16.0557 93.7066 16.0557C94.8975 16.0557 95.9841 16.2956 96.9666 16.7755C97.949 17.2408 98.7305 17.9315 99.3111 18.8477C99.8916 19.7638 100.182 20.8762 100.182 22.185C100.182 22.3304 100.174 22.4976 100.16 22.6867C100.145 22.8757 100.13 23.0502 100.115 23.2102H90.5359V21.0289H97.8597L96.2521 21.6397C96.2669 21.1016 96.1627 20.6363 95.9395 20.2437C95.7311 19.8511 95.4333 19.5457 95.0463 19.3276C94.6742 19.1094 94.235 19.0004 93.7289 19.0004C93.2228 19.0004 92.7762 19.1094 92.3892 19.3276C92.0171 19.5457 91.7268 19.8583 91.5184 20.2655C91.31 20.6581 91.2058 21.1235 91.2058 21.6615V22.2941C91.2058 22.8757 91.3249 23.3774 91.563 23.7991C91.8161 24.2208 92.1734 24.548 92.6348 24.7807C93.0963 24.9988 93.647 25.1079 94.2871 25.1079C94.8826 25.1079 95.3887 25.0279 95.8055 24.868C96.2372 24.6934 96.6614 24.4317 97.0782 24.0827L99.3111 26.3512C98.7305 26.9765 98.016 27.4564 97.1675 27.7908C96.319 28.1108 95.3143 28.2707 94.1532 28.2707Z" fill="white"/>
<path d="M78.0649 28.0744V16.252H82.1064V19.6984L81.5035 18.7168C81.8608 17.8298 82.4413 17.1681 83.2451 16.7319C84.049 16.2811 85.024 16.0557 86.1702 16.0557V19.7856C85.9767 19.7565 85.8055 19.742 85.6566 19.742C85.5227 19.7274 85.3738 19.7202 85.2101 19.7202C84.3467 19.7202 83.6471 19.9528 83.1112 20.4182C82.5753 20.869 82.3073 21.6106 82.3073 22.6431V28.0744H78.0649Z" fill="white"/>
<path d="M71.4348 28.0744V25.8713L71.1445 25.326V21.2689C71.1445 20.6145 70.9361 20.1128 70.5193 19.7638C70.1174 19.4003 69.4698 19.2185 68.5767 19.2185C67.9962 19.2185 67.4082 19.313 66.8127 19.5021C66.2173 19.6766 65.7112 19.9238 65.2944 20.2437L63.8654 17.4299C64.5501 16.9936 65.3688 16.6591 66.3215 16.4265C67.2891 16.1793 68.2492 16.0557 69.2019 16.0557C71.1668 16.0557 72.6852 16.4992 73.7569 17.3862C74.8436 18.2587 75.3869 19.6329 75.3869 21.5088V28.0744H71.4348ZM67.8622 28.2707C66.8946 28.2707 66.0759 28.1108 65.406 27.7908C64.7362 27.4709 64.2226 27.0347 63.8654 26.4821C63.523 25.9295 63.3518 25.3115 63.3518 24.628C63.3518 23.9009 63.5379 23.2756 63.91 22.7521C64.297 22.2141 64.885 21.8069 65.674 21.5306C66.4629 21.2398 67.4826 21.0944 68.733 21.0944H71.5911V23.2538H69.3135C68.6288 23.2538 68.145 23.3629 67.8622 23.581C67.5942 23.7991 67.4603 24.09 67.4603 24.4535C67.4603 24.8171 67.6017 25.1079 67.8845 25.326C68.1673 25.5441 68.5544 25.6532 69.0456 25.6532C69.5071 25.6532 69.9239 25.5441 70.296 25.326C70.683 25.0933 70.9659 24.7443 71.1445 24.279L71.725 25.8059C71.5018 26.6202 71.0626 27.2383 70.4077 27.66C69.7676 28.0671 68.9191 28.2707 67.8622 28.2707Z" fill="white"/>
<path d="M55.5965 28.3796C54.361 28.3796 53.2148 28.1905 52.1579 27.8124C51.1159 27.4198 50.2079 26.8672 49.4338 26.1547C48.6746 25.4421 48.0792 24.606 47.6475 23.6462C47.2158 22.6719 47 21.6031 47 20.4398C47 19.2764 47.2158 18.2149 47.6475 17.2551C48.0792 16.2808 48.6746 15.4374 49.4338 14.7249C50.2079 14.0123 51.1159 13.467 52.1579 13.0889C53.2148 12.6963 54.361 12.5 55.5965 12.5C57.0404 12.5 58.3281 12.7472 59.4594 13.2416C60.6056 13.736 61.5583 14.4486 62.3175 15.3793L59.504 17.8659C58.9979 17.2842 58.4397 16.8407 57.8294 16.5353C57.234 16.23 56.5641 16.0773 55.8198 16.0773C55.1797 16.0773 54.5917 16.1791 54.0559 16.3826C53.52 16.5862 53.0585 16.8843 52.6715 17.277C52.2993 17.655 52.0016 18.1131 51.7783 18.6512C51.5699 19.1892 51.4657 19.7854 51.4657 20.4398C51.4657 21.0942 51.5699 21.6904 51.7783 22.2284C52.0016 22.7665 52.2993 23.2318 52.6715 23.6244C53.0585 24.0025 53.52 24.2933 54.0559 24.4969C54.5917 24.7005 55.1797 24.8023 55.8198 24.8023C56.5641 24.8023 57.234 24.6496 57.8294 24.3442C58.4397 24.0389 58.9979 23.5953 59.504 23.0137L62.3175 25.5003C61.5583 26.4164 60.6056 27.129 59.4594 27.6379C58.3281 28.1324 57.0404 28.3796 55.5965 28.3796Z" fill="white"/>
</svg>
