<svg width="190" height="20" viewBox="0 0 190 20" fill="none" xmlns="http://www.w3.org/2000/svg">
<path d="M2.49878 9.5C2.49878 4.80558 6.30436 1 10.9988 1C15.6932 1 19.4988 4.80558 19.4988 9.5C19.4988 14.1944 15.6932 18 10.9988 18C6.30436 18 2.49878 14.1944 2.49878 9.5Z" fill="white"/>
<path d="M10.4989 0C7.84659 0 5.30303 1.05355 3.42781 2.929C1.55244 4.8045 0.498779 7.348 0.498779 10C0.498779 12.652 1.55234 15.196 3.42781 17.071C5.30318 18.9465 7.84669 20 10.4989 20C13.1509 20 15.6946 18.9465 17.5698 17.071C19.4456 15.1955 20.4988 12.652 20.4988 10C20.4958 7.3485 19.4416 4.807 17.5668 2.9322C15.6921 1.05755 13.1504 0.00305 10.4989 0ZM15.3456 5.5545L12.4888 11.8395C12.4583 11.9065 12.4051 11.96 12.3384 11.99L6.05277 14.847C5.93782 14.8995 5.80235 14.875 5.71303 14.7855C5.62376 14.6965 5.59924 14.561 5.65155 14.446L8.50856 8.161C8.53885 8.094 8.59206 8.0405 8.65887 8.0105L14.9443 5.153C15.0592 5.101 15.1951 5.1255 15.2844 5.215C15.3737 5.304 15.3977 5.4395 15.3456 5.5545Z" fill="#1DD7C0"/>
<path d="M183.258 16.699C182.903 16.699 182.558 16.6383 182.222 16.517C181.886 16.405 181.596 16.237 181.354 16.013L181.928 15.005C182.114 15.1823 182.32 15.3177 182.544 15.411C182.768 15.5043 183.006 15.551 183.258 15.551C183.584 15.551 183.855 15.467 184.07 15.299C184.284 15.131 184.485 14.8323 184.672 14.403L185.134 13.381L185.274 13.213L188.186 6.479H189.502L185.904 14.641C185.689 15.1637 185.446 15.5743 185.176 15.873C184.914 16.1717 184.625 16.3817 184.308 16.503C183.99 16.6337 183.64 16.699 183.258 16.699ZM185.022 14.137L181.634 6.479H183.034L185.918 13.087L185.022 14.137Z" fill="white"/>
<path d="M176.459 13.983C175.74 13.983 175.096 13.8243 174.527 13.507C173.967 13.1897 173.523 12.7463 173.197 12.177C172.87 11.6077 172.707 10.945 172.707 10.189C172.707 9.43299 172.87 8.77499 173.197 8.21499C173.523 7.64565 173.967 7.20232 174.527 6.88499C175.096 6.56765 175.74 6.40899 176.459 6.40899C177.084 6.40899 177.649 6.54899 178.153 6.82899C178.657 7.10899 179.058 7.52899 179.357 8.08899C179.665 8.64899 179.819 9.34899 179.819 10.189C179.819 11.029 179.669 11.729 179.371 12.289C179.081 12.849 178.685 13.2737 178.181 13.563C177.677 13.843 177.103 13.983 176.459 13.983ZM176.571 12.807C177.037 12.807 177.457 12.6997 177.831 12.485C178.213 12.2703 178.512 11.967 178.727 11.575C178.951 11.1737 179.063 10.7117 179.063 10.189C179.063 9.65699 178.951 9.19965 178.727 8.81699C178.512 8.42499 178.213 8.12165 177.831 7.90699C177.457 7.69232 177.037 7.58499 176.571 7.58499C176.095 7.58499 175.67 7.69232 175.297 7.90699C174.923 8.12165 174.625 8.42499 174.401 8.81699C174.177 9.19965 174.065 9.65699 174.065 10.189C174.065 10.7117 174.177 11.1737 174.401 11.575C174.625 11.967 174.923 12.2703 175.297 12.485C175.67 12.6997 176.095 12.807 176.571 12.807ZM179.105 13.899V11.897L179.189 10.175L179.049 8.45299V3.51099H180.393V13.899H179.105Z" fill="white"/>
<path d="M166.916 13.983C166.197 13.983 165.553 13.8243 164.984 13.507C164.424 13.1897 163.98 12.7463 163.654 12.177C163.327 11.6077 163.164 10.945 163.164 10.189C163.164 9.43299 163.327 8.77499 163.654 8.21499C163.98 7.64565 164.424 7.20232 164.984 6.88499C165.553 6.56765 166.197 6.40899 166.916 6.40899C167.541 6.40899 168.106 6.54899 168.61 6.82899C169.114 7.10899 169.515 7.52899 169.814 8.08899C170.122 8.64899 170.276 9.34899 170.276 10.189C170.276 11.029 170.126 11.729 169.828 12.289C169.538 12.849 169.142 13.2737 168.638 13.563C168.134 13.843 167.56 13.983 166.916 13.983ZM167.028 12.807C167.494 12.807 167.914 12.6997 168.288 12.485C168.67 12.2703 168.969 11.967 169.184 11.575C169.408 11.1737 169.52 10.7117 169.52 10.189C169.52 9.65699 169.408 9.19965 169.184 8.81699C168.969 8.42499 168.67 8.12165 168.288 7.90699C167.914 7.69232 167.494 7.58499 167.028 7.58499C166.552 7.58499 166.127 7.69232 165.754 7.90699C165.38 8.12165 165.082 8.42499 164.858 8.81699C164.634 9.19965 164.522 9.65699 164.522 10.189C164.522 10.7117 164.634 11.1737 164.858 11.575C165.082 11.967 165.38 12.2703 165.754 12.485C166.127 12.6997 166.552 12.807 167.028 12.807ZM169.562 13.899V11.897L169.646 10.175L169.506 8.45299V3.51099H170.85V13.899H169.562Z" fill="white"/>
<path d="M157.497 13.983C156.862 13.983 156.302 13.8663 155.817 13.633C155.341 13.3997 154.968 13.045 154.697 12.569C154.436 12.0837 154.305 11.477 154.305 10.749V6.479H155.649V10.595C155.649 11.323 155.822 11.869 156.167 12.233C156.522 12.597 157.016 12.779 157.651 12.779C158.118 12.779 158.524 12.6857 158.869 12.499C159.214 12.303 159.48 12.023 159.667 11.659C159.854 11.2857 159.947 10.8377 159.947 10.315V6.479H161.291V13.899H160.017V11.897L160.227 12.429C159.984 12.9237 159.62 13.3063 159.135 13.577C158.65 13.8477 158.104 13.983 157.497 13.983Z" fill="white"/>
<path d="M143.975 13.8991V4.09912H148.371C149.5 4.09912 150.368 4.32779 150.975 4.78512C151.582 5.23312 151.885 5.84912 151.885 6.63312C151.885 7.16512 151.764 7.61312 151.521 7.97712C151.288 8.34112 150.97 8.62112 150.569 8.81712C150.168 9.01312 149.734 9.11112 149.267 9.11112L149.519 8.69112C150.079 8.69112 150.574 8.78912 151.003 8.98512C151.432 9.18112 151.773 9.47046 152.025 9.85312C152.277 10.2265 152.403 10.6931 152.403 11.2531C152.403 12.0931 152.086 12.7465 151.451 13.2131C150.826 13.6705 149.892 13.8991 148.651 13.8991H143.975ZM145.375 12.7651H148.595C149.37 12.7651 149.962 12.6345 150.373 12.3731C150.784 12.1118 150.989 11.7011 150.989 11.1411C150.989 10.5718 150.784 10.1565 150.373 9.89512C149.962 9.63379 149.37 9.50312 148.595 9.50312H145.249V8.36912H148.245C148.954 8.36912 149.505 8.23846 149.897 7.97712C150.289 7.71579 150.485 7.32379 150.485 6.80112C150.485 6.27845 150.289 5.88645 149.897 5.62512C149.505 5.36379 148.954 5.23312 148.245 5.23312H145.375V12.7651Z" fill="white"/>
<path d="M138.511 13.9829C137.718 13.9829 137.018 13.8196 136.411 13.4929C135.814 13.1663 135.347 12.7183 135.011 12.1489C134.684 11.5796 134.521 10.9263 134.521 10.1889C134.521 9.4516 134.68 8.79827 134.997 8.22894C135.324 7.6596 135.767 7.21627 136.327 6.89894C136.896 6.57227 137.536 6.40894 138.245 6.40894C138.964 6.40894 139.598 6.5676 140.149 6.88494C140.7 7.20227 141.129 7.65027 141.437 8.22894C141.754 8.79827 141.913 9.4656 141.913 10.2309C141.913 10.2869 141.908 10.3523 141.899 10.4269C141.899 10.5016 141.894 10.5716 141.885 10.6369H135.571V9.67094H141.185L140.639 10.0069C140.648 9.53094 140.55 9.10627 140.345 8.73294C140.14 8.3596 139.855 8.07027 139.491 7.86494C139.136 7.65027 138.721 7.54294 138.245 7.54294C137.778 7.54294 137.363 7.65027 136.999 7.86494C136.635 8.07027 136.35 8.36427 136.145 8.74694C135.94 9.12027 135.837 9.5496 135.837 10.0349V10.2589C135.837 10.7536 135.949 11.1969 136.173 11.5889C136.406 11.9716 136.728 12.2703 137.139 12.4849C137.55 12.6996 138.021 12.8069 138.553 12.8069C138.992 12.8069 139.388 12.7323 139.743 12.5829C140.107 12.4336 140.424 12.2096 140.695 11.9109L141.437 12.7789C141.101 13.1709 140.681 13.4696 140.177 13.6749C139.682 13.8803 139.127 13.9829 138.511 13.9829Z" fill="white"/>
<path d="M130.552 13.9829C129.796 13.9829 129.12 13.8196 128.522 13.4929C127.934 13.1663 127.472 12.7183 127.136 12.1489C126.8 11.5796 126.632 10.9263 126.632 10.1889C126.632 9.4516 126.8 8.79827 127.136 8.22894C127.472 7.6596 127.934 7.21627 128.522 6.89894C129.12 6.57227 129.796 6.40894 130.552 6.40894C131.224 6.40894 131.822 6.54427 132.344 6.81494C132.876 7.07627 133.287 7.46827 133.576 7.99094L132.554 8.64894C132.312 8.28494 132.013 8.01894 131.658 7.85094C131.313 7.6736 130.94 7.58494 130.538 7.58494C130.053 7.58494 129.619 7.69227 129.236 7.90694C128.854 8.1216 128.55 8.42494 128.326 8.81694C128.102 9.1996 127.99 9.65694 127.99 10.1889C127.99 10.7209 128.102 11.1829 128.326 11.5749C128.55 11.9669 128.854 12.2703 129.236 12.4849C129.619 12.6996 130.053 12.8069 130.538 12.8069C130.94 12.8069 131.313 12.7229 131.658 12.5549C132.013 12.3776 132.312 12.1069 132.554 11.7429L133.576 12.3869C133.287 12.9003 132.876 13.2969 132.344 13.5769C131.822 13.8476 131.224 13.9829 130.552 13.9829Z" fill="white"/>
<path d="M121.751 6.40894C122.358 6.40894 122.89 6.5256 123.347 6.75893C123.814 6.99227 124.178 7.34694 124.439 7.82294C124.7 8.29894 124.831 8.90094 124.831 9.62894V13.8989H123.487V9.78294C123.487 9.06427 123.31 8.52294 122.955 8.15894C122.61 7.79494 122.12 7.61294 121.485 7.61294C121.009 7.61294 120.594 7.70627 120.239 7.89294C119.884 8.0796 119.609 8.35494 119.413 8.71894C119.226 9.08294 119.133 9.5356 119.133 10.0769V13.8989H117.789V6.47894H119.077V8.48094L118.867 7.94894C119.11 7.4636 119.483 7.0856 119.987 6.81494C120.491 6.54427 121.079 6.40894 121.751 6.40894Z" fill="white"/>
<path d="M114.028 13.8989V12.3309L113.958 12.0369V9.36294C113.958 8.7936 113.79 8.35494 113.454 8.04694C113.127 7.7296 112.632 7.57094 111.97 7.57094C111.531 7.57094 111.102 7.6456 110.682 7.79494C110.262 7.93494 109.907 8.12627 109.618 8.36894L109.058 7.36094C109.44 7.05294 109.898 6.8196 110.43 6.66094C110.971 6.49294 111.536 6.40894 112.124 6.40894C113.141 6.40894 113.925 6.65627 114.476 7.15094C115.026 7.6456 115.302 8.4016 115.302 9.41894V13.8989H114.028ZM111.592 13.9829C111.041 13.9829 110.556 13.8896 110.136 13.7029C109.725 13.5163 109.408 13.2596 109.184 12.9329C108.96 12.5969 108.848 12.2189 108.848 11.7989C108.848 11.3976 108.941 11.0336 109.128 10.7069C109.324 10.3803 109.636 10.1189 110.066 9.92294C110.504 9.72694 111.092 9.62894 111.83 9.62894H114.182V10.5949H111.886C111.214 10.5949 110.761 10.7069 110.528 10.9309C110.294 11.1549 110.178 11.4256 110.178 11.7429C110.178 12.1069 110.322 12.4009 110.612 12.6249C110.901 12.8396 111.302 12.9469 111.816 12.9469C112.32 12.9469 112.758 12.8349 113.132 12.6109C113.514 12.3869 113.79 12.0603 113.958 11.6309L114.224 12.5549C114.046 12.9936 113.734 13.3436 113.286 13.6049C112.838 13.8569 112.273 13.9829 111.592 13.9829Z" fill="white"/>
<path d="M102.945 13.983C102.226 13.983 101.582 13.8243 101.013 13.507C100.453 13.1897 100.01 12.7463 99.6829 12.177C99.3562 11.6077 99.1929 10.945 99.1929 10.189C99.1929 9.43299 99.3562 8.77499 99.6829 8.21499C100.01 7.64565 100.453 7.20232 101.013 6.88499C101.582 6.56765 102.226 6.40899 102.945 6.40899C103.57 6.40899 104.135 6.54899 104.639 6.82899C105.143 7.10899 105.544 7.52899 105.843 8.08899C106.151 8.64899 106.305 9.34899 106.305 10.189C106.305 11.029 106.156 11.729 105.857 12.289C105.568 12.849 105.171 13.2737 104.667 13.563C104.163 13.843 103.589 13.983 102.945 13.983ZM103.057 12.807C103.524 12.807 103.944 12.6997 104.317 12.485C104.7 12.2703 104.998 11.967 105.213 11.575C105.437 11.1737 105.549 10.7117 105.549 10.189C105.549 9.65699 105.437 9.19965 105.213 8.81699C104.998 8.42499 104.7 8.12165 104.317 7.90699C103.944 7.69232 103.524 7.58499 103.057 7.58499C102.581 7.58499 102.156 7.69232 101.783 7.90699C101.41 8.12165 101.111 8.42499 100.887 8.81699C100.663 9.19965 100.551 9.65699 100.551 10.189C100.551 10.7117 100.663 11.1737 100.887 11.575C101.111 11.967 101.41 12.2703 101.783 12.485C102.156 12.6997 102.581 12.807 103.057 12.807ZM105.591 13.899V11.897L105.675 10.175L105.535 8.45299V3.51099H106.879V13.899H105.591Z" fill="white"/>
<path d="M95.9687 13.899V6.47903H97.3127V13.899H95.9687ZM96.6407 5.05103C96.3794 5.05103 96.16 4.96703 95.9827 4.79903C95.8147 4.63103 95.7307 4.42569 95.7307 4.18303C95.7307 3.93103 95.8147 3.72103 95.9827 3.55303C96.16 3.38503 96.3794 3.30103 96.6407 3.30103C96.902 3.30103 97.1167 3.38503 97.2847 3.55303C97.462 3.71169 97.5507 3.91236 97.5507 4.15503C97.5507 4.40703 97.4667 4.62169 97.2987 4.79903C97.1307 4.96703 96.9114 5.05103 96.6407 5.05103Z" fill="white"/>
<path d="M89.6161 13.983C88.9814 13.983 88.4214 13.8663 87.9361 13.633C87.4601 13.3997 87.0867 13.045 86.8161 12.569C86.5547 12.0837 86.4241 11.477 86.4241 10.749V6.479H87.7681V10.595C87.7681 11.323 87.9407 11.869 88.2861 12.233C88.6407 12.597 89.1354 12.779 89.7701 12.779C90.2367 12.779 90.6427 12.6857 90.9881 12.499C91.3334 12.303 91.5994 12.023 91.7861 11.659C91.9727 11.2857 92.0661 10.8377 92.0661 10.315V6.479H93.4101V13.899H92.1361V11.897L92.3461 12.429C92.1034 12.9237 91.7394 13.3063 91.2541 13.577C90.7687 13.8477 90.2227 13.983 89.6161 13.983Z" fill="white"/>
<path d="M80.2996 14.0111C79.5436 14.0111 78.8483 13.8897 78.2136 13.6471C77.579 13.3951 77.0283 13.0451 76.5616 12.5971C76.095 12.1397 75.731 11.6077 75.4696 11.0011C75.2083 10.3944 75.0776 9.72706 75.0776 8.99906C75.0776 8.27106 75.2083 7.60373 75.4696 6.99706C75.731 6.39039 76.095 5.86306 76.5616 5.41506C77.0376 4.95773 77.593 4.60773 78.2276 4.36506C78.8623 4.11306 79.5623 3.98706 80.3276 3.98706C81.1023 3.98706 81.8116 4.11306 82.4556 4.36506C83.0996 4.61706 83.6456 4.99506 84.0936 5.49906L83.2256 6.36706C82.8243 5.97506 82.3856 5.69039 81.9096 5.51306C81.443 5.32639 80.9343 5.23306 80.3836 5.23306C79.8236 5.23306 79.301 5.32639 78.8156 5.51306C78.3396 5.69973 77.9243 5.96106 77.5696 6.29706C77.2243 6.63306 76.9536 7.03439 76.7576 7.50106C76.571 7.95839 76.4776 8.45773 76.4776 8.99906C76.4776 9.53106 76.571 10.0304 76.7576 10.4971C76.9536 10.9544 77.2243 11.3557 77.5696 11.7011C77.9243 12.0371 78.3396 12.2984 78.8156 12.4851C79.2916 12.6717 79.8096 12.7651 80.3696 12.7651C80.8923 12.7651 81.3916 12.6857 81.8676 12.5271C82.353 12.3591 82.801 12.0837 83.2116 11.7011L84.0096 12.7651C83.5243 13.1757 82.955 13.4884 82.3016 13.7031C81.6576 13.9084 80.9903 14.0111 80.2996 14.0111ZM82.6656 12.5831V8.94306H84.0096V12.7651L82.6656 12.5831Z" fill="white"/>
<path d="M69.0525 13.8991V6.31106H71.5865V8.52306L71.2085 7.89306C71.4325 7.32372 71.7965 6.89906 72.3005 6.61906C72.8045 6.32972 73.4158 6.18506 74.1345 6.18506V8.57906C74.0132 8.56039 73.9058 8.55106 73.8125 8.55106C73.7285 8.54172 73.6352 8.53706 73.5325 8.53706C72.9912 8.53706 72.5525 8.68639 72.2165 8.98506C71.8805 9.27439 71.7125 9.75039 71.7125 10.4131V13.8991H69.0525Z" fill="white"/>
<path d="M64.0462 14.0251C63.1502 14.0251 62.3662 13.8571 61.6942 13.5211C61.0316 13.1757 60.5136 12.7091 60.1402 12.1211C59.7762 11.5237 59.5942 10.8471 59.5942 10.0911C59.5942 9.33506 59.7716 8.66306 60.1262 8.07506C60.4902 7.47772 60.9896 7.01573 61.6242 6.68906C62.2589 6.35306 62.9729 6.18506 63.7662 6.18506C64.5129 6.18506 65.1942 6.33906 65.8102 6.64706C66.4262 6.94572 66.9162 7.38906 67.2802 7.97706C67.6442 8.56506 67.8262 9.27906 67.8262 10.1191C67.8262 10.2124 67.8216 10.3197 67.8122 10.4411C67.8029 10.5624 67.7936 10.6744 67.7842 10.7771H61.7782V9.37706H66.3702L65.3622 9.76906C65.3716 9.42373 65.3062 9.12506 65.1662 8.87306C65.0356 8.62106 64.8489 8.42506 64.6062 8.28506C64.3729 8.14506 64.0976 8.07506 63.7802 8.07506C63.4629 8.07506 63.1829 8.14506 62.9402 8.28506C62.7069 8.42506 62.5249 8.62573 62.3942 8.88706C62.2636 9.13906 62.1982 9.43772 62.1982 9.78306V10.1891C62.1982 10.5624 62.2729 10.8844 62.4222 11.1551C62.5809 11.4257 62.8049 11.6357 63.0942 11.7851C63.3836 11.9251 63.7289 11.9951 64.1302 11.9951C64.5036 11.9951 64.8209 11.9437 65.0822 11.8411C65.3529 11.7291 65.6189 11.5611 65.8802 11.3371L67.2802 12.7931C66.9162 13.1944 66.4682 13.5024 65.9362 13.7171C65.4042 13.9224 64.7742 14.0251 64.0462 14.0251Z" fill="white"/>
<path d="M55.0638 14.0251C54.1678 14.0251 53.3838 13.8571 52.7118 13.5211C52.0492 13.1757 51.5311 12.7091 51.1578 12.1211C50.7938 11.5237 50.6118 10.8471 50.6118 10.0911C50.6118 9.33506 50.7891 8.66306 51.1438 8.07506C51.5078 7.47772 52.0072 7.01573 52.6418 6.68906C53.2765 6.35306 53.9905 6.18506 54.7838 6.18506C55.5305 6.18506 56.2118 6.33906 56.8278 6.64706C57.4438 6.94572 57.9338 7.38906 58.2978 7.97706C58.6618 8.56506 58.8438 9.27906 58.8438 10.1191C58.8438 10.2124 58.8392 10.3197 58.8298 10.4411C58.8205 10.5624 58.8112 10.6744 58.8018 10.7771H52.7958V9.37706H57.3878L56.3798 9.76906C56.3891 9.42373 56.3238 9.12506 56.1838 8.87306C56.0532 8.62106 55.8665 8.42506 55.6238 8.28506C55.3905 8.14506 55.1151 8.07506 54.7978 8.07506C54.4805 8.07506 54.2005 8.14506 53.9578 8.28506C53.7245 8.42506 53.5425 8.62573 53.4118 8.88706C53.2811 9.13906 53.2158 9.43772 53.2158 9.78306V10.1891C53.2158 10.5624 53.2905 10.8844 53.4398 11.1551C53.5985 11.4257 53.8225 11.6357 54.1118 11.7851C54.4011 11.9251 54.7465 11.9951 55.1478 11.9951C55.5211 11.9951 55.8385 11.9437 56.0998 11.8411C56.3705 11.7291 56.6365 11.5611 56.8978 11.3371L58.2978 12.7931C57.9338 13.1944 57.4858 13.5024 56.9538 13.7171C56.4218 13.9224 55.7918 14.0251 55.0638 14.0251Z" fill="white"/>
<path d="M44.9763 13.8991V6.31106H47.5103V8.52306L47.1323 7.89306C47.3563 7.32372 47.7203 6.89906 48.2243 6.61906C48.7283 6.32972 49.3397 6.18506 50.0583 6.18506V8.57906C49.937 8.56039 49.8297 8.55106 49.7363 8.55106C49.6523 8.54172 49.559 8.53706 49.4563 8.53706C48.915 8.53706 48.4763 8.68639 48.1403 8.98506C47.8043 9.27439 47.6363 9.75039 47.6363 10.4131V13.8991H44.9763Z" fill="white"/>
<path d="M40.8195 13.8991V12.4851L40.6375 12.1351V9.53106C40.6375 9.11106 40.5068 8.78906 40.2455 8.56506C39.9935 8.33173 39.5875 8.21506 39.0275 8.21506C38.6635 8.21506 38.2948 8.27573 37.9215 8.39706C37.5481 8.50906 37.2308 8.66772 36.9695 8.87306L36.0735 7.06706C36.5028 6.78706 37.0161 6.57239 37.6135 6.42306C38.2201 6.26439 38.8221 6.18506 39.4195 6.18506C40.6515 6.18506 41.6035 6.46973 42.2755 7.03906C42.9568 7.59906 43.2975 8.48106 43.2975 9.68506V13.8991H40.8195ZM38.5795 14.0251C37.9728 14.0251 37.4595 13.9224 37.0395 13.7171C36.6195 13.5117 36.2975 13.2317 36.0735 12.8771C35.8588 12.5224 35.7515 12.1257 35.7515 11.6871C35.7515 11.2204 35.8681 10.8191 36.1015 10.4831C36.3441 10.1377 36.7128 9.87639 37.2075 9.69906C37.7021 9.51239 38.3415 9.41906 39.1255 9.41906H40.9175V10.8051H39.4895C39.0601 10.8051 38.7568 10.8751 38.5795 11.0151C38.4115 11.1551 38.3275 11.3417 38.3275 11.5751C38.3275 11.8084 38.4161 11.9951 38.5935 12.1351C38.7708 12.2751 39.0135 12.3451 39.3215 12.3451C39.6108 12.3451 39.8721 12.2751 40.1055 12.1351C40.3481 11.9857 40.5255 11.7617 40.6375 11.4631L41.0015 12.4431C40.8615 12.9657 40.5861 13.3624 40.1755 13.6331C39.7741 13.8944 39.2421 14.0251 38.5795 14.0251Z" fill="white"/>
<path d="M30.8888 14.0951C30.1141 14.0951 29.3954 13.9737 28.7328 13.7311C28.0794 13.4791 27.5101 13.1244 27.0248 12.6671C26.5488 12.2097 26.1754 11.6731 25.9048 11.0571C25.6341 10.4317 25.4988 9.74574 25.4988 8.99908C25.4988 8.25241 25.6341 7.57108 25.9048 6.95508C26.1754 6.32974 26.5488 5.78841 27.0248 5.33108C27.5101 4.87374 28.0794 4.52374 28.7328 4.28108C29.3954 4.02908 30.1141 3.90308 30.8888 3.90308C31.7941 3.90308 32.6014 4.06174 33.3108 4.37908C34.0294 4.69641 34.6268 5.15374 35.1028 5.75108L33.3388 7.34708C33.0214 6.97374 32.6714 6.68908 32.2888 6.49308C31.9154 6.29708 31.4954 6.19908 31.0288 6.19908C30.6274 6.19908 30.2588 6.26441 29.9228 6.39508C29.5868 6.52574 29.2974 6.71708 29.0548 6.96908C28.8214 7.21174 28.6348 7.50574 28.4948 7.85108C28.3641 8.19641 28.2988 8.57908 28.2988 8.99908C28.2988 9.41908 28.3641 9.80174 28.4948 10.1471C28.6348 10.4924 28.8214 10.7911 29.0548 11.0431C29.2974 11.2857 29.5868 11.4724 29.9228 11.6031C30.2588 11.7337 30.6274 11.7991 31.0288 11.7991C31.4954 11.7991 31.9154 11.7011 32.2888 11.5051C32.6714 11.3091 33.0214 11.0244 33.3388 10.6511L35.1028 12.2471C34.6268 12.8351 34.0294 13.2924 33.3108 13.6191C32.6014 13.9364 31.7941 14.0951 30.8888 14.0951Z" fill="white"/>
</svg>
