<svg width="40" height="40" viewBox="0 0 40 40" fill="none" xmlns="http://www.w3.org/2000/svg">
<path d="M21.3456 24.34L20 21.4L18.6544 24.34L15.2 24.6088L17.824 26.6934L17.0336 29.8L20 28.1494L22.9664 29.8L22.176 26.6934L24.8 24.6088L21.3456 24.34ZM10.4 6H29.6V8.8H10.4V6ZM7.2 11.6H32.8V14.4H7.2V11.6Z" fill="white"/>
<path d="M32.8 20V31.2H7.2V20H32.8ZM32.8 17.2H7.2C6.35131 17.2 5.53737 17.495 4.93726 18.0201C4.33714 18.5452 4 19.2574 4 20V31.2C4 31.9426 4.33714 32.6548 4.93726 33.1799C5.53737 33.705 6.35131 34 7.2 34H32.8C33.6487 34 34.4626 33.705 35.0627 33.1799C35.6629 32.6548 36 31.9426 36 31.2V20C36 19.2574 35.6629 18.5452 35.0627 18.0201C34.4626 17.495 33.6487 17.2 32.8 17.2Z" fill="white"/>
</svg>
